<svg xmlns="http://www.w3.org/2000/svg" version="1.1" xmlns:xlink="http://www.w3.org/1999/xlink" xmlns:svgjs="http://svgjs.dev/svgjs" width="1000" height="623" viewBox="0 0 1000 623"><g transform="matrix(1,0,0,1,-0.6060606060606233,36.27852950558213)"><svg viewBox="0 0 396 247" data-background-color="#ffffff" preserveAspectRatio="xMidYMid meet" height="623" width="1000" xmlns="http://www.w3.org/2000/svg" xmlns:xlink="http://www.w3.org/1999/xlink"><g id="tight-bounds" transform="matrix(1,0,0,1,0.2400000000000091,-0.09999999999999432)"><svg viewBox="0 0 395.52 247.2" height="247.2" width="395.52"><g><svg></svg></g><g><svg viewBox="0 0 395.52 247.2" height="247.2" width="395.52"><g transform="matrix(1,0,0,1,75.54432,112.27885482341236)"><svg viewBox="0 0 244.43135999999998 22.64229035317526" height="22.64229035317526" width="244.43135999999998"><g><svg viewBox="0 0 244.43135999999998 22.64229035317526" height="22.64229035317526" width="244.43135999999998"><g><svg viewBox="0 0 244.43135999999998 22.64229035317526" height="22.64229035317526" width="244.43135999999998"><g><svg viewBox="0 0 244.43135999999998 22.64229035317526" height="22.64229035317526" width="244.43135999999998"><g id="textblocktransform"><svg viewBox="0 0 244.43135999999998 22.64229035317526" height="22.64229035317526" width="244.43135999999998" id="textblock"><g><svg viewBox="0 0 244.43135999999998 22.64229035317526" height="22.64229035317526" width="244.43135999999998"><g transform="matrix(1,0,0,1,0,0)"><svg width="244.43135999999998" viewBox="1.4600000381469727 -40.15999984741211 441.69000244140625 40.91999816894531" height="22.64229035317526" data-palette-color="#883d1a"><path d="M1.66 0L1.66 0Q1.54 0 1.5-0.07 1.46-0.15 1.46-0.2L1.46-0.2 1.46-1.51Q1.46-1.56 1.5-1.64 1.54-1.71 1.66-1.71L1.66-1.71Q2.42-1.71 3.19-1.82 3.96-1.93 4.59-2.29 5.22-2.66 5.63-3.34 6.03-4.03 6.03-5.2L6.03-5.2 6.03-29.66Q6.03-30.49 5.76-31.05 5.49-31.62 5-31.97 4.52-32.32 3.83-32.5 3.15-32.67 2.32-32.71L2.32-32.71Q2.12-32.71 2.12-32.91L2.12-32.91 2.12-34.23Q2.12-34.42 2.29-34.42L2.29-34.42 16.75-34.42Q16.87-34.42 16.91-34.35 16.94-34.28 16.94-34.23L16.94-34.23 16.94-32.91Q16.94-32.76 16.75-32.76L16.75-32.76Q16.02-32.76 15.33-32.63 14.65-32.5 14.14-32.13 13.62-31.76 13.31-31.09 12.99-30.42 12.99-29.32L12.99-29.32 12.99-19.26Q12.99-19.02 13.06-18.95 13.13-18.87 13.38-18.87L13.38-18.87 30.42-18.87Q30.66-18.87 30.74-18.95 30.81-19.02 30.81-19.26L30.81-19.26 30.81-29.71Q30.81-30.57 30.27-31.13 29.74-31.69 28.92-32.02 28.1-32.35 27.15-32.51 26.2-32.67 25.39-32.71L25.39-32.71Q25.2-32.71 25.2-32.91L25.2-32.91 25.2-34.23Q25.2-34.42 25.37-34.42L25.37-34.42 41.65-34.42Q41.77-34.42 41.81-34.35 41.85-34.28 41.85-34.23L41.85-34.23 41.85-32.91Q41.85-32.76 41.65-32.76L41.65-32.76Q40.92-32.76 40.22-32.63 39.53-32.5 38.98-32.13 38.43-31.76 38.1-31.09 37.77-30.42 37.77-29.32L37.77-29.32 37.77-5.15Q37.77-4.52 37.95-4.02 38.13-3.52 38.53-3.03L38.53-3.03Q38.92-2.49 39.81-2.12 40.7-1.76 42.33-1.71L42.33-1.71Q42.53-1.71 42.53-1.51L42.53-1.51 42.53-0.2Q42.53 0 42.33 0L42.33 0 24.61 0Q24.49 0 24.45-0.07 24.41-0.15 24.41-0.2L24.41-0.2 24.41-1.51Q24.41-1.56 24.45-1.64 24.49-1.71 24.61-1.71L24.61-1.71Q25.34-1.71 26.39-1.81 27.44-1.9 28.43-2.23 29.42-2.56 30.11-3.19 30.81-3.81 30.81-4.88L30.81-4.88 30.81-15.43Q30.81-15.67 30.74-15.75 30.66-15.82 30.42-15.82L30.42-15.82 13.38-15.82Q13.13-15.82 13.06-15.75 12.99-15.67 12.99-15.43L12.99-15.43 12.99-4.64Q12.99-3.81 13.35-3.25 13.72-2.69 14.32-2.34 14.92-2 15.7-1.86 16.48-1.71 17.31-1.71L17.31-1.71Q17.46-1.71 17.48-1.64 17.5-1.56 17.5-1.51L17.5-1.51 17.5-0.2Q17.5-0.15 17.48-0.07 17.46 0 17.33 0L17.33 0 1.66 0ZM45.82-11.4L45.82-11.4Q45.82-13.7 46.84-15.8 47.85-17.9 49.56-19.51 51.27-21.12 53.54-22.07 55.81-23.02 58.32-23.02L58.32-23.02Q60.96-23.02 63.33-22.12 65.7-21.22 67.49-19.64 69.28-18.07 70.33-15.93 71.38-13.79 71.38-11.3L71.38-11.3Q71.38-8.76 70.42-6.58 69.46-4.39 67.75-2.78 66.04-1.17 63.68-0.26 61.33 0.66 58.54 0.66L58.54 0.66Q55.78 0.66 53.45-0.28 51.12-1.22 49.42-2.84 47.73-4.47 46.77-6.67 45.82-8.86 45.82-11.4ZM52.07-12.94L52.07-12.94Q52.07-11.62 52.27-10.22 52.46-8.81 52.85-7.48 53.24-6.15 53.84-4.98 54.44-3.81 55.27-2.92 56.1-2.03 57.15-1.51 58.2-1 59.52-1L59.52-1Q60.96-1 62-1.75 63.03-2.49 63.71-3.69 64.38-4.88 64.69-6.37 65.01-7.86 65.01-9.35L65.01-9.35Q65.01-10.55 64.79-11.88 64.57-13.21 64.13-14.51 63.69-15.82 63.06-17.02 62.42-18.21 61.58-19.13 60.74-20.04 59.7-20.58 58.66-21.12 57.44-21.12L57.44-21.12Q56.08-21.12 55.06-20.37 54.05-19.63 53.39-18.44 52.73-17.26 52.4-15.81 52.07-14.36 52.07-12.94ZM74.82-19.85L82.91-23.68Q83-23.73 83.11-23.78 83.22-23.83 83.27-23.83L83.27-23.83Q83.69-23.83 83.69-23.24L83.69-23.24 83.69-19.19Q83.71-19.04 83.88-19.04L83.88-19.04Q84.03-19.04 84.22-19.14L84.22-19.14Q85.32-19.73 86.37-20.35 87.42-20.97 88.48-21.48 89.55-22 90.62-22.31 91.69-22.63 92.79-22.63L92.79-22.63Q93.89-22.63 94.65-22.36 95.41-22.09 95.92-21.67 96.43-21.24 96.76-20.74 97.09-20.24 97.33-19.78L97.33-19.78Q97.36-19.7 97.43-19.59 97.5-19.48 97.61-19.36 97.72-19.24 97.83-19.15 97.94-19.07 98.07-19.07L98.07-19.07Q98.41-19.09 98.77-19.29L98.77-19.29Q101.14-20.48 102.64-21.15 104.15-21.83 105.16-22.16 106.17-22.49 106.87-22.56 107.56-22.63 108.3-22.63L108.3-22.63Q109.74-22.63 110.77-22.12 111.81-21.61 112.52-20.76 113.23-19.92 113.65-18.84 114.08-17.75 114.3-16.61 114.52-15.48 114.59-14.37 114.67-13.26 114.67-12.35L114.67-12.35Q114.67-11.5 114.63-10.77 114.59-10.03 114.56-9.17 114.52-8.3 114.48-7.2 114.45-6.1 114.45-4.54L114.45-4.54Q114.45-3.81 114.72-3.32 114.99-2.83 115.41-2.51 115.84-2.2 116.35-2.04 116.87-1.88 117.35-1.78 117.84-1.68 118.24-1.62 118.65-1.56 118.87-1.46L118.87-1.46Q118.96-1.42 119.04-1.15 119.11-0.88 119.11-0.76L119.11-0.76Q119.11-0.61 119.06-0.33 119.01-0.05 118.87 0L118.87 0 105.24 0Q105.1-0.05 105.05-0.33 105-0.61 105-0.76L105-0.76Q105-0.88 105.07-1.15 105.15-1.42 105.24-1.46L105.24-1.46Q105.56-1.61 106.15-1.7 106.73-1.78 107.32-2.06 107.91-2.34 108.33-2.93 108.76-3.52 108.76-4.69L108.76-4.69 108.76-4.74Q108.88-5.49 108.92-6.41 108.95-7.32 108.95-8.42L108.95-8.42Q108.95-8.96 108.94-9.44 108.93-9.91 108.93-10.41 108.93-10.91 108.92-11.5 108.91-12.08 108.91-12.84L108.91-12.84Q108.91-14.04 108.8-15.23 108.69-16.43 108.26-17.38 107.83-18.33 107-18.93 106.17-19.53 104.71-19.53L104.71-19.53Q104.46-19.53 104.17-19.47 103.88-19.41 103.36-19.23 102.85-19.04 102-18.68 101.14-18.31 99.75-17.72L99.75-17.72Q99.56-17.6 99.35-17.44 99.14-17.29 99.12-17.04L99.12-17.04 99.12-4.54Q99.12-3.44 99.56-2.87 100-2.29 100.58-2.04 101.17-1.78 101.75-1.7 102.34-1.61 102.66-1.46L102.66-1.46Q102.75-1.42 102.83-1.15 102.9-0.88 102.9-0.76L102.9-0.76Q102.9-0.61 102.85-0.33 102.8-0.05 102.66 0L102.66 0 89.91 0Q89.77-0.05 89.72-0.33 89.67-0.61 89.67-0.76L89.67-0.76Q89.67-0.88 89.74-1.15 89.81-1.42 89.91-1.46L89.91-1.46Q90.23-1.61 90.82-1.7 91.4-1.78 91.99-2.04 92.57-2.29 93.01-2.87 93.45-3.44 93.45-4.54L93.45-4.54 93.45-15.19Q93.45-16.14 93.31-16.93 93.16-17.72 92.74-18.3 92.33-18.87 91.58-19.19 90.84-19.51 89.64-19.51L89.64-19.51Q89.08-19.51 88.23-19.2 87.37-18.9 86.48-18.43 85.59-17.97 84.82-17.46 84.05-16.94 83.69-16.5L83.69-16.5 83.69-4.54Q83.69-3.44 84.13-2.87 84.57-2.29 85.15-2.04 85.74-1.78 86.32-1.7 86.91-1.61 87.23-1.46L87.23-1.46Q87.32-1.42 87.4-1.15 87.47-0.88 87.47-0.76L87.47-0.76Q87.47-0.61 87.42-0.33 87.37-0.05 87.23 0L87.23 0 74.48 0Q74.34-0.05 74.29-0.33 74.24-0.61 74.24-0.76L74.24-0.76Q74.24-0.88 74.31-1.15 74.38-1.42 74.48-1.46L74.48-1.46Q74.8-1.61 75.39-1.7 75.97-1.78 76.56-2.04 77.14-2.29 77.58-2.84 78.02-3.39 78.02-4.49L78.02-4.49 78.02-16.92Q78.02-17.5 77.7-17.83 77.39-18.16 76.9-18.33 76.41-18.51 75.85-18.62 75.29-18.73 74.78-18.87L74.78-18.87Q74.63-18.92 74.54-19.01 74.46-19.09 74.46-19.36L74.46-19.36Q74.46-19.48 74.53-19.6 74.6-19.73 74.82-19.85L74.82-19.85ZM120.92-9.89L120.92-9.89Q120.92-12.74 121.72-15.15 122.53-17.55 124.04-19.31 125.55-21.07 127.74-22.05 129.92-23.02 132.71-23.02L132.71-23.02Q133.54-23.02 134.2-22.91 134.86-22.8 135.41-22.62 135.95-22.44 136.43-22.18 136.91-21.92 137.39-21.63L137.39-21.63Q137.96-21.34 138.68-20.58 139.4-19.82 140.03-18.82 140.67-17.82 141.11-16.69 141.55-15.55 141.55-14.5L141.55-14.5Q141.55-14.16 141.41-13.76 141.28-13.35 140.96-13.35L140.96-13.35 126.56-13.35Q126.31-13.35 126.23-12.92 126.14-12.48 126.14-11.84L126.14-11.84Q126.14-9.69 126.76-8.02 127.39-6.35 128.43-5.19 129.48-4.03 130.85-3.43 132.22-2.83 133.73-2.83L133.73-2.83Q134.68-2.83 135.56-3.09 136.44-3.34 137.25-3.76 138.05-4.17 138.76-4.69 139.47-5.2 140.1-5.71L140.1-5.71Q140.25-5.76 140.3-5.76L140.3-5.76Q140.37-5.76 140.5-5.64L140.5-5.64Q140.72-5.44 140.93-5.19 141.15-4.93 141.28-4.76L141.28-4.76Q141.35-4.69 141.35-4.61L141.35-4.61Q141.35-4.54 141.25-4.44L141.25-4.44Q140.45-3.49 139.27-2.58 138.1-1.66 136.77-0.94 135.44-0.22 134.05 0.22 132.66 0.66 131.41 0.66L131.41 0.66Q128.9 0.66 126.95-0.26 124.99-1.17 123.65-2.66 122.31-4.15 121.61-6.04 120.92-7.93 120.92-9.89ZM127.26-15.23L135.25-15.23Q135.88-15.23 135.88-15.8L135.88-15.8Q135.88-16.75 135.58-17.59 135.27-18.43 134.71-19.08 134.15-19.73 133.35-20.09 132.56-20.46 131.58-20.46L131.58-20.46Q130.41-20.46 129.53-19.96 128.65-19.46 128.04-18.75 127.43-18.04 127.13-17.29 126.82-16.53 126.82-15.99L126.82-15.99Q126.82-15.58 126.95-15.41 127.07-15.23 127.26-15.23L127.26-15.23ZM145.57-19.85L153.65-23.68Q153.75-23.73 153.86-23.78 153.97-23.83 154.02-23.83L154.02-23.83Q154.43-23.83 154.43-23.24L154.43-23.24 154.43-19.19Q154.46-19.04 154.63-19.04L154.63-19.04Q154.78-19.04 154.97-19.14L154.97-19.14Q156.07-19.73 157.12-20.35 158.17-20.97 159.23-21.48 160.29-22 161.37-22.31 162.44-22.63 163.54-22.63L163.54-22.63Q164.64-22.63 165.4-22.36 166.15-22.09 166.66-21.67 167.18-21.24 167.51-20.74 167.84-20.24 168.08-19.78L168.08-19.78Q168.11-19.7 168.18-19.59 168.25-19.48 168.36-19.36 168.47-19.24 168.58-19.15 168.69-19.07 168.81-19.07L168.81-19.07Q169.16-19.09 169.52-19.29L169.52-19.29Q171.89-20.48 173.39-21.15 174.89-21.83 175.91-22.16 176.92-22.49 177.61-22.56 178.31-22.63 179.04-22.63L179.04-22.63Q180.48-22.63 181.52-22.12 182.56-21.61 183.27-20.76 183.97-19.92 184.4-18.84 184.83-17.75 185.05-16.61 185.27-15.48 185.34-14.37 185.41-13.26 185.41-12.35L185.41-12.35Q185.41-11.5 185.38-10.77 185.34-10.03 185.3-9.17 185.27-8.3 185.23-7.2 185.2-6.1 185.2-4.54L185.2-4.54Q185.2-3.81 185.46-3.32 185.73-2.83 186.16-2.51 186.59-2.2 187.1-2.04 187.61-1.88 188.1-1.78 188.59-1.68 188.99-1.62 189.39-1.56 189.61-1.46L189.61-1.46Q189.71-1.42 189.78-1.15 189.86-0.88 189.86-0.76L189.86-0.76Q189.86-0.61 189.81-0.33 189.76-0.05 189.61 0L189.61 0 175.99 0Q175.84-0.05 175.8-0.33 175.75-0.61 175.75-0.76L175.75-0.76Q175.75-0.88 175.82-1.15 175.89-1.42 175.99-1.46L175.99-1.46Q176.31-1.61 176.89-1.7 177.48-1.78 178.07-2.06 178.65-2.34 179.08-2.93 179.51-3.52 179.51-4.69L179.51-4.69 179.51-4.74Q179.63-5.49 179.67-6.41 179.7-7.32 179.7-8.42L179.7-8.42Q179.7-8.96 179.69-9.44 179.68-9.91 179.68-10.41 179.68-10.91 179.67-11.5 179.65-12.08 179.65-12.84L179.65-12.84Q179.65-14.04 179.54-15.23 179.43-16.43 179.01-17.38 178.58-18.33 177.75-18.93 176.92-19.53 175.45-19.53L175.45-19.53Q175.21-19.53 174.92-19.47 174.62-19.41 174.11-19.23 173.6-19.04 172.74-18.68 171.89-18.31 170.5-17.72L170.5-17.72Q170.3-17.6 170.09-17.44 169.89-17.29 169.86-17.04L169.86-17.04 169.86-4.54Q169.86-3.44 170.3-2.87 170.74-2.29 171.33-2.04 171.91-1.78 172.5-1.7 173.09-1.61 173.4-1.46L173.4-1.46Q173.5-1.42 173.57-1.15 173.65-0.88 173.65-0.76L173.65-0.76Q173.65-0.61 173.6-0.33 173.55-0.05 173.4 0L173.4 0 160.66 0Q160.51-0.05 160.46-0.33 160.41-0.61 160.41-0.76L160.41-0.76Q160.41-0.88 160.49-1.15 160.56-1.42 160.66-1.46L160.66-1.46Q160.98-1.61 161.56-1.7 162.15-1.78 162.73-2.04 163.32-2.29 163.76-2.87 164.2-3.44 164.2-4.54L164.2-4.54 164.2-15.19Q164.2-16.14 164.05-16.93 163.91-17.72 163.49-18.3 163.08-18.87 162.33-19.19 161.59-19.51 160.39-19.51L160.39-19.51Q159.83-19.51 158.97-19.2 158.12-18.9 157.23-18.43 156.34-17.97 155.57-17.46 154.8-16.94 154.43-16.5L154.43-16.5 154.43-4.54Q154.43-3.44 154.87-2.87 155.31-2.29 155.9-2.04 156.48-1.78 157.07-1.7 157.66-1.61 157.97-1.46L157.97-1.46Q158.07-1.42 158.14-1.15 158.22-0.88 158.22-0.76L158.22-0.76Q158.22-0.61 158.17-0.33 158.12-0.05 157.97 0L157.97 0 145.23 0Q145.08-0.05 145.03-0.33 144.99-0.61 144.99-0.76L144.99-0.76Q144.99-0.88 145.06-1.15 145.13-1.42 145.23-1.46L145.23-1.46Q145.55-1.61 146.13-1.7 146.72-1.78 147.3-2.04 147.89-2.29 148.33-2.84 148.77-3.39 148.77-4.49L148.77-4.49 148.77-16.92Q148.77-17.5 148.45-17.83 148.13-18.16 147.65-18.33 147.16-18.51 146.6-18.62 146.03-18.73 145.52-18.87L145.52-18.87Q145.38-18.92 145.29-19.01 145.2-19.09 145.2-19.36L145.2-19.36Q145.2-19.48 145.28-19.6 145.35-19.73 145.57-19.85L145.57-19.85ZM204.7-2.71L201.84-0.49Q201.04 0.07 199.94 0.39 198.84 0.71 197.74 0.71L197.74 0.71Q194.76 0.71 193.21-0.63 191.66-1.98 191.66-4.27L191.66-4.27Q191.66-5.59 192.26-6.54 192.86-7.5 194.03-8.23 195.2-8.96 196.92-9.56 198.64-10.16 200.92-10.74L200.92-10.74Q202.14-11.06 202.88-11.43 203.63-11.79 204.26-12.13L204.26-12.13Q204.68-12.35 204.74-12.52 204.8-12.7 204.8-12.84L204.8-12.84 204.8-17.09Q204.8-17.9 204.57-18.59 204.33-19.29 203.87-19.8 203.41-20.31 202.75-20.61 202.09-20.9 201.26-20.9L201.26-20.9Q200.55-20.9 199.94-20.65 199.33-20.41 198.89-19.95 198.45-19.48 198.19-18.85 197.94-18.21 197.94-17.41L197.94-17.41Q197.94-17.33 197.95-17.19 197.96-17.04 197.99-16.88 198.01-16.72 198.03-16.6 198.06-16.48 198.06-16.46L198.06-16.46Q198.03-16.41 197.66-16.26 197.28-16.11 196.73-15.93 196.18-15.75 195.52-15.56 194.86-15.38 194.26-15.21 193.66-15.04 193.21-14.9 192.76-14.77 192.59-14.75L192.59-14.75Q192.32-14.75 192.26-15.03 192.2-15.31 192.2-15.58L192.2-15.58Q192.2-16.99 193.05-18.33 193.91-19.68 195.34-20.72 196.76-21.75 198.62-22.39 200.48-23.02 202.45-23.02L202.45-23.02Q204.21-23.02 205.6-22.57 206.99-22.12 207.97-21.33 208.95-20.53 209.46-19.49 209.97-18.46 209.97-17.29L209.97-17.29 209.97-5.64Q209.97-5 210.45-4.5 210.93-4 211.68-4L211.68-4Q212.12-4 212.48-4.16 212.83-4.32 213.11-4.53 213.39-4.74 213.59-4.9 213.78-5.05 213.93-5.05L213.93-5.05Q214.12-5.05 214.15-4.9 214.17-4.74 214.17-4.61L214.17-4.61Q214.17-4.2 214.06-3.77 213.95-3.34 213.68-3.15L213.68-3.15Q212.49-2.25 211.56-1.53 210.63-0.81 209.88-0.29 209.12 0.22 208.51 0.49 207.9 0.76 207.36 0.76L207.36 0.76Q206.87 0.76 206.49 0.49 206.12 0.22 205.83-0.17 205.55-0.56 205.36-1.01 205.16-1.46 205.03-1.86 204.89-2.25 204.82-2.49 204.75-2.73 204.7-2.71L204.7-2.71ZM197.35-4.86L197.35-4.86Q197.35-4.2 197.61-3.78 197.86-3.37 198.28-3.15 198.69-2.93 199.22-2.84 199.74-2.76 200.3-2.76L200.3-2.76Q200.82-2.76 201.57-3.02 202.33-3.27 203.05-3.7 203.77-4.13 204.28-4.68 204.8-5.22 204.8-5.79L204.8-5.79 204.8-9.81Q204.8-10.08 204.6-10.08L204.6-10.08Q204.55-10.08 204.5-10.06L204.5-10.06 198.84-7.42Q198.5-7.18 198.22-6.97 197.94-6.76 197.74-6.48 197.55-6.2 197.45-5.82 197.35-5.44 197.35-4.86ZM230.14-36.21L238.22-40.01Q238.32-40.06 238.42-40.11 238.53-40.16 238.58-40.16L238.58-40.16Q239-40.16 239-39.58L239-39.58 239-5.59Q239-4.52 239.55-4.05 240.1-3.59 241.2-3.59L241.2-3.59 242.61-3.69Q242.71-3.69 242.73-3.55 242.76-3.42 242.76-3.27L242.76-3.27Q242.76-3.22 242.7-3.14 242.64-3.05 242.39-2.95L242.39-2.95 234.04 0.51Q233.99 0.54 233.8 0.6 233.6 0.66 233.58 0.66L233.58 0.66Q233.41 0.66 233.37 0.45 233.33 0.24 233.33 0.05L233.33 0.05 233.33-1.64Q233.33-1.88 233.16-1.88L233.16-1.88Q233.09-1.88 232.94-1.81L232.94-1.81Q232.09-1.32 231.33-0.87 230.58-0.42 229.81-0.07 229.04 0.27 228.2 0.46 227.35 0.66 226.33 0.66L226.33 0.66Q224.13 0.66 222.37-0.24 220.61-1.15 219.39-2.66 218.17-4.17 217.51-6.13 216.86-8.08 216.86-10.21L216.86-10.21Q216.86-12.77 217.87-14.97 218.88-17.16 220.58-18.77 222.28-20.39 224.52-21.3 226.77-22.22 229.23-22.22L229.23-22.22Q229.89-22.22 230.38-22.09 230.87-21.97 231.28-21.84 231.7-21.7 232.11-21.58 232.53-21.46 233.04-21.46L233.04-21.46Q233.11-21.46 233.22-21.51 233.33-21.56 233.33-21.78L233.33-21.78 233.33-33.28Q233.33-33.86 233.02-34.19 232.7-34.52 232.21-34.69 231.72-34.86 231.16-34.97 230.6-35.08 230.09-35.23L230.09-35.23Q229.94-35.28 229.86-35.36 229.77-35.45 229.77-35.72L229.77-35.72Q229.77-35.84 229.84-35.96 229.92-36.08 230.14-36.21L230.14-36.21ZM222.4-11.3L222.4-11.3Q222.4-9.55 222.8-7.92 223.2-6.3 224.05-5.07 224.89-3.83 226.18-3.1 227.48-2.37 229.23-2.37L229.23-2.37Q229.5-2.37 230.19-2.51 230.87-2.66 231.56-2.89 232.26-3.13 232.8-3.44 233.33-3.76 233.33-4.13L233.33-4.13 233.33-16.26Q233.33-17.94 232.13-18.99 230.92-20.04 228.67-20.04L228.67-20.04Q227.04-20.04 225.85-19.27 224.67-18.51 223.9-17.26 223.13-16.02 222.76-14.45 222.4-12.89 222.4-11.3ZM244.95-9.89L244.95-9.89Q244.95-12.74 245.76-15.15 246.56-17.55 248.08-19.31 249.59-21.07 251.78-22.05 253.96-23.02 256.75-23.02L256.75-23.02Q257.58-23.02 258.23-22.91 258.89-22.8 259.44-22.62 259.99-22.44 260.47-22.18 260.94-21.92 261.43-21.63L261.43-21.63Q261.99-21.34 262.71-20.58 263.43-19.82 264.07-18.82 264.7-17.82 265.14-16.69 265.58-15.55 265.58-14.5L265.58-14.5Q265.58-14.16 265.45-13.76 265.31-13.35 265-13.35L265-13.35 250.59-13.35Q250.35-13.35 250.26-12.92 250.18-12.48 250.18-11.84L250.18-11.84Q250.18-9.69 250.8-8.02 251.42-6.35 252.47-5.19 253.52-4.03 254.89-3.43 256.26-2.83 257.77-2.83L257.77-2.83Q258.72-2.83 259.6-3.09 260.48-3.34 261.29-3.76 262.09-4.17 262.8-4.69 263.51-5.2 264.14-5.71L264.14-5.71Q264.29-5.76 264.34-5.76L264.34-5.76Q264.41-5.76 264.53-5.64L264.53-5.64Q264.75-5.44 264.97-5.19 265.19-4.93 265.31-4.76L265.31-4.76Q265.39-4.69 265.39-4.61L265.39-4.61Q265.39-4.54 265.29-4.44L265.29-4.44Q264.48-3.49 263.31-2.58 262.14-1.66 260.81-0.94 259.48-0.22 258.09 0.22 256.7 0.66 255.45 0.66L255.45 0.66Q252.94 0.66 250.98-0.26 249.03-1.17 247.69-2.66 246.34-4.15 245.65-6.04 244.95-7.93 244.95-9.89ZM251.3-15.23L259.28-15.23Q259.92-15.23 259.92-15.8L259.92-15.8Q259.92-16.75 259.61-17.59 259.31-18.43 258.75-19.08 258.19-19.73 257.39-20.09 256.6-20.46 255.62-20.46L255.62-20.46Q254.45-20.46 253.57-19.96 252.69-19.46 252.08-18.75 251.47-18.04 251.17-17.29 250.86-16.53 250.86-15.99L250.86-15.99Q250.86-15.58 250.98-15.41 251.11-15.23 251.3-15.23L251.3-15.23ZM283.08 0L283.08 0Q282.96 0 282.92-0.07 282.89-0.15 282.89-0.2L282.89-0.2 282.89-1.51Q282.89-1.56 282.92-1.64 282.96-1.71 283.08-1.71L283.08-1.71Q283.84-1.71 284.61-1.82 285.38-1.93 286.01-2.29 286.65-2.66 287.05-3.34 287.45-4.03 287.45-5.2L287.45-5.2 287.45-29.66Q287.45-30.49 287.18-31.05 286.92-31.62 286.43-31.97 285.94-32.32 285.26-32.5 284.57-32.67 283.74-32.71L283.74-32.71Q283.55-32.71 283.55-32.91L283.55-32.91 283.55-34.23Q283.55-34.42 283.72-34.42L283.72-34.42 298.17-34.42Q298.29-34.42 298.33-34.35 298.37-34.28 298.37-34.23L298.37-34.23 298.37-32.91Q298.37-32.76 298.17-32.76L298.17-32.76Q297.44-32.76 296.75-32.63 296.07-32.5 295.56-32.13 295.05-31.76 294.73-31.09 294.41-30.42 294.41-29.32L294.41-29.32 294.41-19.26Q294.41-19.02 294.48-18.95 294.56-18.87 294.8-18.87L294.8-18.87 311.84-18.87Q312.09-18.87 312.16-18.95 312.23-19.02 312.23-19.26L312.23-19.26 312.23-29.71Q312.23-30.57 311.7-31.13 311.16-31.69 310.34-32.02 309.52-32.35 308.57-32.51 307.62-32.67 306.81-32.71L306.81-32.71Q306.62-32.71 306.62-32.91L306.62-32.91 306.62-34.23Q306.62-34.42 306.79-34.42L306.79-34.42 323.07-34.42Q323.2-34.42 323.23-34.35 323.27-34.28 323.27-34.23L323.27-34.23 323.27-32.91Q323.27-32.76 323.07-32.76L323.07-32.76Q322.34-32.76 321.64-32.63 320.95-32.5 320.4-32.13 319.85-31.76 319.52-31.09 319.19-30.42 319.19-29.32L319.19-29.32 319.19-5.15Q319.19-4.52 319.37-4.02 319.56-3.52 319.95-3.03L319.95-3.03Q320.34-2.49 321.23-2.12 322.12-1.76 323.76-1.71L323.76-1.71Q323.95-1.71 323.95-1.51L323.95-1.51 323.95-0.2Q323.95 0 323.76 0L323.76 0 306.03 0Q305.91 0 305.87-0.07 305.84-0.15 305.84-0.2L305.84-0.2 305.84-1.51Q305.84-1.56 305.87-1.64 305.91-1.71 306.03-1.71L306.03-1.71Q306.76-1.71 307.81-1.81 308.86-1.9 309.85-2.23 310.84-2.56 311.54-3.19 312.23-3.81 312.23-4.88L312.23-4.88 312.23-15.43Q312.23-15.67 312.16-15.75 312.09-15.82 311.84-15.82L311.84-15.82 294.8-15.82Q294.56-15.82 294.48-15.75 294.41-15.67 294.41-15.43L294.41-15.43 294.41-4.64Q294.41-3.81 294.78-3.25 295.14-2.69 295.74-2.34 296.34-2 297.12-1.86 297.9-1.71 298.73-1.71L298.73-1.71Q298.88-1.71 298.9-1.64 298.93-1.56 298.93-1.51L298.93-1.51 298.93-0.2Q298.93-0.15 298.9-0.07 298.88 0 298.76 0L298.76 0 283.08 0ZM327.12-9.89L327.12-9.89Q327.12-12.74 327.93-15.15 328.73-17.55 330.25-19.31 331.76-21.07 333.95-22.05 336.13-23.02 338.92-23.02L338.92-23.02Q339.75-23.02 340.4-22.91 341.06-22.8 341.61-22.62 342.16-22.44 342.64-22.18 343.11-21.92 343.6-21.63L343.6-21.63Q344.16-21.34 344.88-20.58 345.6-19.82 346.24-18.82 346.87-17.82 347.31-16.69 347.75-15.55 347.75-14.5L347.75-14.5Q347.75-14.16 347.62-13.76 347.48-13.35 347.17-13.35L347.17-13.35 332.76-13.35Q332.52-13.35 332.43-12.92 332.35-12.48 332.35-11.84L332.35-11.84Q332.35-9.69 332.97-8.02 333.59-6.35 334.64-5.19 335.69-4.03 337.06-3.43 338.43-2.83 339.94-2.83L339.94-2.83Q340.89-2.83 341.77-3.09 342.65-3.34 343.46-3.76 344.26-4.17 344.97-4.69 345.68-5.2 346.31-5.71L346.31-5.71Q346.46-5.76 346.51-5.76L346.51-5.76Q346.58-5.76 346.7-5.64L346.7-5.64Q346.92-5.44 347.14-5.19 347.36-4.93 347.48-4.76L347.48-4.76Q347.56-4.69 347.56-4.61L347.56-4.61Q347.56-4.54 347.46-4.44L347.46-4.44Q346.65-3.49 345.48-2.58 344.31-1.66 342.98-0.94 341.65-0.22 340.26 0.22 338.87 0.66 337.62 0.66L337.62 0.66Q335.11 0.66 333.15-0.26 331.2-1.17 329.86-2.66 328.52-4.15 327.82-6.04 327.12-7.93 327.12-9.89ZM333.47-15.23L341.45-15.23Q342.09-15.23 342.09-15.8L342.09-15.8Q342.09-16.75 341.78-17.59 341.48-18.43 340.92-19.08 340.36-19.73 339.56-20.09 338.77-20.46 337.79-20.46L337.79-20.46Q336.62-20.46 335.74-19.96 334.86-19.46 334.25-18.75 333.64-18.04 333.34-17.29 333.03-16.53 333.03-15.99L333.03-15.99Q333.03-15.58 333.15-15.41 333.28-15.23 333.47-15.23L333.47-15.23ZM364.91-2.71L362.06-0.49Q361.25 0.07 360.15 0.39 359.05 0.71 357.96 0.71L357.96 0.71Q354.98 0.71 353.43-0.63 351.88-1.98 351.88-4.27L351.88-4.27Q351.88-5.59 352.47-6.54 353.07-7.5 354.24-8.23 355.42-8.96 357.14-9.56 358.86-10.16 361.13-10.74L361.13-10.74Q362.35-11.06 363.1-11.43 363.84-11.79 364.47-12.13L364.47-12.13Q364.89-12.35 364.95-12.52 365.01-12.7 365.01-12.84L365.01-12.84 365.01-17.09Q365.01-17.9 364.78-18.59 364.55-19.29 364.08-19.8 363.62-20.31 362.96-20.61 362.3-20.9 361.47-20.9L361.47-20.9Q360.76-20.9 360.15-20.65 359.54-20.41 359.1-19.95 358.66-19.48 358.41-18.85 358.15-18.21 358.15-17.41L358.15-17.41Q358.15-17.33 358.16-17.19 358.18-17.04 358.2-16.88 358.22-16.72 358.25-16.6 358.27-16.48 358.27-16.46L358.27-16.46Q358.25-16.41 357.87-16.26 357.49-16.11 356.94-15.93 356.39-15.75 355.73-15.56 355.08-15.38 354.48-15.21 353.88-15.04 353.43-14.9 352.98-14.77 352.8-14.75L352.8-14.75Q352.54-14.75 352.47-15.03 352.41-15.31 352.41-15.58L352.41-15.58Q352.41-16.99 353.27-18.33 354.12-19.68 355.55-20.72 356.98-21.75 358.83-22.39 360.69-23.02 362.67-23.02L362.67-23.02Q364.43-23.02 365.82-22.57 367.21-22.12 368.19-21.33 369.16-20.53 369.67-19.49 370.19-18.46 370.19-17.29L370.19-17.29 370.19-5.64Q370.19-5 370.66-4.5 371.14-4 371.9-4L371.9-4Q372.34-4 372.69-4.16 373.04-4.32 373.32-4.53 373.61-4.74 373.8-4.9 374-5.05 374.14-5.05L374.14-5.05Q374.34-5.05 374.36-4.9 374.39-4.74 374.39-4.61L374.39-4.61Q374.39-4.2 374.28-3.77 374.17-3.34 373.9-3.15L373.9-3.15Q372.7-2.25 371.77-1.53 370.85-0.81 370.09-0.29 369.33 0.22 368.72 0.49 368.11 0.76 367.58 0.76L367.58 0.76Q367.09 0.76 366.71 0.49 366.33 0.22 366.05-0.17 365.77-0.56 365.57-1.01 365.38-1.46 365.24-1.86 365.11-2.25 365.04-2.49 364.96-2.73 364.91-2.71L364.91-2.71ZM357.57-4.86L357.57-4.86Q357.57-4.2 357.82-3.78 358.08-3.37 358.49-3.15 358.91-2.93 359.43-2.84 359.96-2.76 360.52-2.76L360.52-2.76Q361.03-2.76 361.79-3.02 362.55-3.27 363.27-3.7 363.99-4.13 364.5-4.68 365.01-5.22 365.01-5.79L365.01-5.79 365.01-9.81Q365.01-10.08 364.82-10.08L364.82-10.08Q364.77-10.08 364.72-10.06L364.72-10.06 359.05-7.42Q358.71-7.18 358.43-6.97 358.15-6.76 357.96-6.48 357.76-6.2 357.66-5.82 357.57-5.44 357.57-4.86ZM376.85-19.12L384.93-22.92Q385.03-22.97 385.14-23.02 385.25-23.07 385.3-23.07L385.3-23.07Q385.71-23.07 385.71-22.49L385.71-22.49 385.71-18.33Q385.71-18.26 385.72-18.15 385.74-18.04 385.86-18.04L385.86-18.04Q385.98-18.04 386.05-18.13 386.13-18.21 386.2-18.29L386.2-18.29Q386.64-18.87 387.19-19.59 387.74-20.31 388.36-20.95 388.98-21.58 389.64-22.01 390.3-22.44 390.94-22.44L390.94-22.44Q391.38-22.44 392.08-22.19 392.79-21.95 393.46-21.62 394.14-21.29 394.61-20.94 395.09-20.58 395.09-20.36L395.09-20.36Q395.09-20.14 394.87-19.54 394.65-18.95 394.32-18.33 393.99-17.72 393.61-17.25 393.23-16.77 392.91-16.77L392.91-16.77 392.87-16.77Q392.43-16.92 391.97-17.13 391.52-17.33 391.06-17.54 390.6-17.75 390.12-17.88 389.64-18.02 389.15-18.02L389.15-18.02Q388.42-18.02 387.79-17.71 387.15-17.41 386.7-16.93 386.25-16.46 385.98-15.87 385.71-15.28 385.71-14.75L385.71-14.75 385.71-4.44Q385.71-3.74 386.02-3.26 386.32-2.78 386.8-2.48 387.27-2.17 387.85-2.01 388.42-1.86 388.96-1.76 389.5-1.66 389.94-1.6 390.38-1.54 390.6-1.44L390.6-1.44Q390.84-1.34 390.84-0.76L390.84-0.76Q390.84-0.05 390.6 0L390.6 0 376.51 0Q376.26-0.05 376.26-0.76L376.26-0.76Q376.26-1.34 376.51-1.44L376.51-1.44Q376.83-1.59 377.41-1.67 378-1.76 378.58-2.01 379.17-2.27 379.61-2.82 380.05-3.37 380.05-4.44L380.05-4.44 380.05-16.19Q380.05-16.77 379.73-17.1 379.41-17.43 378.93-17.6 378.44-17.77 377.88-17.88 377.31-17.99 376.8-18.14L376.8-18.14Q376.65-18.19 376.57-18.27 376.48-18.36 376.48-18.63L376.48-18.63Q376.48-18.75 376.56-18.87 376.63-18.99 376.85-19.12L376.85-19.12ZM398.77-5.18L398.77-18.82 396.94-18.82Q396.6-18.82 396.4-18.99 396.21-19.17 396.18-19.36L396.18-19.36Q396.18-19.48 396.23-19.63 396.28-19.78 396.35-19.82L396.35-19.82Q396.84-20.14 397.42-20.57 397.99-21 398.55-21.46 399.11-21.92 399.65-22.39 400.19-22.85 400.6-23.24L400.6-23.24Q400.85-23.51 401.27-24.05 401.7-24.58 402.25-25.11 402.8-25.63 403.43-26.04 404.07-26.44 404.73-26.44L404.73-26.44Q404.87-26.44 405.07-26.34 405.27-26.25 405.27-26.1L405.27-26.1Q405.27-25.93 405.18-25.57 405.09-25.22 404.97-24.78 404.85-24.34 404.7-23.85 404.56-23.36 404.44-22.9L404.44-22.9Q404.44-22.71 404.5-22.58 404.56-22.46 404.83-22.44L404.83-22.44 411.05-22.44Q411.44-22.44 411.59-22.3 411.74-22.17 411.81-21.95L411.81-21.95Q411.86-21.83 411.91-21.45 411.95-21.07 412-20.62 412.05-20.17 412.09-19.71 412.13-19.26 412.13-18.97L412.13-18.97Q412.13-18.82 411.93-18.82L411.93-18.82 404.58-18.82Q404.46-18.82 404.45-18.77 404.44-18.73 404.44-18.6L404.44-18.6 404.44-6.47Q404.44-5.69 404.63-5.1 404.83-4.52 405.13-4.13 405.44-3.74 405.83-3.54 406.22-3.34 406.61-3.34L406.61-3.34Q407.73-3.34 408.44-3.67 409.15-4 409.66-4.39 410.17-4.79 410.56-5.11 410.95-5.44 411.44-5.44L411.44-5.44Q411.78-5.44 411.84-5.18 411.91-4.91 411.91-4.76L411.91-4.76Q411.91-4.44 411.82-4.26 411.74-4.08 411.69-3.98L411.69-3.98Q411.66-3.93 411.42-3.56 411.17-3.2 410.76-2.69 410.34-2.17 409.75-1.59 409.15-1 408.41-0.5 407.68 0 406.82 0.33 405.95 0.66 405 0.66L405 0.66Q403.68 0.66 402.53 0.17 401.38-0.32 400.55-1.14 399.72-1.95 399.25-3 398.77-4.05 398.77-5.18L398.77-5.18ZM426.7-0.73L426.7-0.73Q426.7-0.59 426.65-0.32 426.6-0.05 426.45 0L426.45 0 413.71 0Q413.56-0.05 413.51-0.32 413.47-0.59 413.47-0.73L413.47-0.73Q413.47-0.85 413.54-1.14 413.61-1.42 413.71-1.46L413.71-1.46Q414.03-1.61 414.61-1.7 415.2-1.78 415.79-2.04 416.37-2.29 416.81-2.84 417.25-3.39 417.25-4.47L417.25-4.47 417.25-33.3Q417.25-33.89 416.93-34.22 416.62-34.55 416.13-34.72 415.64-34.89 415.08-35 414.52-35.11 414-35.25L414-35.25Q413.86-35.3 413.77-35.39 413.69-35.47 413.69-35.74L413.69-35.74Q413.69-35.86 413.76-35.99 413.83-36.11 414.05-36.23L414.05-36.23 422.13-40.01Q422.23-40.06 422.34-40.11 422.45-40.16 422.5-40.16L422.5-40.16Q422.91-40.16 422.91-39.58L422.91-39.58 422.91-18.9Q422.91-18.8 422.94-18.55 422.96-18.31 423.09-18.31L423.09-18.31Q423.26-18.31 423.33-18.4 423.4-18.48 423.55-18.63L423.55-18.63Q424.26-19.43 424.99-20.15 425.72-20.87 426.6-21.42 427.48-21.97 428.58-22.29 429.68-22.61 431.14-22.61L431.14-22.61Q432.66-22.61 434.13-22.25 435.61-21.9 436.77-20.94 437.93-19.97 438.65-18.27 439.37-16.58 439.37-13.89L439.37-13.89 439.37-4.47Q439.37-3.39 439.81-2.84 440.25-2.29 440.83-2.04 441.42-1.78 442.01-1.7 442.59-1.61 442.91-1.46L442.91-1.46Q443.01-1.42 443.08-1.14 443.15-0.85 443.15-0.73L443.15-0.73Q443.15-0.59 443.1-0.32 443.06-0.05 442.91 0L442.91 0 430.17 0Q430.02-0.05 429.97-0.32 429.92-0.59 429.92-0.73L429.92-0.73Q429.92-0.85 429.99-1.14 430.07-1.42 430.17-1.46L430.17-1.46Q430.48-1.61 431.07-1.7 431.65-1.78 432.24-2.04 432.83-2.29 433.27-2.84 433.71-3.39 433.71-4.47L433.71-4.47 433.71-12.87Q433.71-14.28 433.63-15.53 433.56-16.77 433.13-17.7 432.7-18.63 431.76-19.15 430.82-19.68 429.12-19.68L429.12-19.68Q428.24-19.68 427.16-19.25 426.09-18.82 425.14-18.1 424.18-17.38 423.55-16.44 422.91-15.5 422.91-14.48L422.91-14.48 422.91-4.47Q422.91-3.39 423.35-2.84 423.79-2.29 424.38-2.04 424.97-1.78 425.55-1.7 426.14-1.61 426.45-1.46L426.45-1.46Q426.55-1.42 426.63-1.14 426.7-0.85 426.7-0.73Z" opacity="1" transform="matrix(1,0,0,1,0,0)" fill="#883d1a" class="wordmark-text-0" data-fill-palette-color="primary" id="text-0"></path></svg></g></svg></g></svg></g></svg></g><g></g></svg></g></svg></g></svg></g><g><path d="M76.686 106.934A122.216 122.216 0 0 1 318.834 106.934L316.792 106.934A120.174 120.174 0 0 0 78.728 106.934L76.686 106.934M76.686 140.266A122.216 122.216 0 0 0 318.834 140.266L316.792 140.266A120.174 120.174 0 0 1 78.728 140.266L76.686 140.266" fill="#883d1a" stroke="transparent" data-fill-palette-color="tertiary"></path></g></svg></g><defs></defs></svg><rect width="395.52" height="247.2" fill="none" stroke="none" visibility="hidden"></rect></g></svg></g></svg>